<svg xmlns="http://www.w3.org/2000/svg" xmlns:xlink="http://www.w3.org/1999/xlink">
    <defs>
        <symbol id="filled-calendar" xmlns="http://www.w3.org/2000/svg"  viewBox="0 0 24 24">
            <path d="M22.5 5.99944C22.5 5.20379 22.1839 4.44073 21.6213 3.87812C21.0587 3.31551 20.2956 2.99944 19.5 2.99944H18.75V2.27054C18.75 1.86694 18.4397 1.52054 18.0361 1.50038C17.9347 1.49549 17.8333 1.51125 17.7382 1.54669C17.6431 1.58212 17.5561 1.63651 17.4826 1.70655C17.4091 1.77658 17.3506 1.86081 17.3106 1.95413C17.2706 2.04745 17.25 2.14792 17.25 2.24944V2.99944H6.75V2.27054C6.75 1.86694 6.43969 1.52054 6.03609 1.50038C5.93469 1.49549 5.83334 1.51125 5.7382 1.54669C5.64307 1.58212 5.55611 1.63651 5.48261 1.70655C5.40911 1.77658 5.3506 1.86081 5.31062 1.95413C5.27063 2.04745 5.25001 2.14792 5.25 2.24944V2.99944H4.5C3.70435 2.99944 2.94129 3.31551 2.37868 3.87812C1.81607 4.44073 1.5 5.20379 1.5 5.99944V6.56194C1.5 6.61167 1.51975 6.65936 1.55492 6.69453C1.59008 6.72969 1.63777 6.74944 1.6875 6.74944H22.3125C22.3622 6.74944 22.4099 6.72969 22.4451 6.69453C22.4802 6.65936 22.5 6.61167 22.5 6.56194V5.99944Z" fill="currentColor"/>
            <path d="M1.5 19.4994C1.5 20.2951 1.81607 21.0582 2.37868 21.6208C2.94129 22.1834 3.70435 22.4994 4.5 22.4994H19.5C20.2956 22.4994 21.0587 22.1834 21.6213 21.6208C22.1839 21.0582 22.5 20.2951 22.5 19.4994V8.39007C22.5 8.35277 22.4852 8.317 22.4588 8.29063C22.4324 8.26426 22.3967 8.24944 22.3594 8.24944H1.64062C1.60333 8.24944 1.56756 8.26426 1.54119 8.29063C1.51482 8.317 1.5 8.35277 1.5 8.39007V19.4994ZM17.625 9.74944C17.8475 9.74944 18.065 9.81542 18.25 9.93904C18.435 10.0627 18.5792 10.2384 18.6644 10.4439C18.7495 10.6495 18.7718 10.8757 18.7284 11.0939C18.685 11.3121 18.5778 11.5126 18.4205 11.6699C18.2632 11.8273 18.0627 11.9344 17.8445 11.9778C17.6262 12.0212 17.4 11.999 17.1945 11.9138C16.9889 11.8287 16.8132 11.6845 16.6896 11.4995C16.566 11.3145 16.5 11.0969 16.5 10.8744C16.5 10.5761 16.6185 10.2899 16.8295 10.0789C17.0405 9.86797 17.3266 9.74944 17.625 9.74944ZM17.625 13.4994C17.8475 13.4994 18.065 13.5654 18.25 13.689C18.435 13.8127 18.5792 13.9884 18.6644 14.1939C18.7495 14.3995 18.7718 14.6257 18.7284 14.8439C18.685 15.0621 18.5778 15.2626 18.4205 15.4199C18.2632 15.5773 18.0627 15.6844 17.8445 15.7278C17.6262 15.7712 17.4 15.749 17.1945 15.6638C16.9889 15.5787 16.8132 15.4345 16.6896 15.2495C16.566 15.0645 16.5 14.8469 16.5 14.6244C16.5 14.3261 16.6185 14.0399 16.8295 13.8289C17.0405 13.618 17.3266 13.4994 17.625 13.4994ZM13.875 9.74944C14.0975 9.74944 14.315 9.81542 14.5 9.93904C14.685 10.0627 14.8292 10.2384 14.9144 10.4439C14.9995 10.6495 15.0218 10.8757 14.9784 11.0939C14.935 11.3121 14.8278 11.5126 14.6705 11.6699C14.5132 11.8273 14.3127 11.9344 14.0945 11.9778C13.8762 12.0212 13.65 11.999 13.4445 11.9138C13.2389 11.8287 13.0632 11.6845 12.9396 11.4995C12.816 11.3145 12.75 11.0969 12.75 10.8744C12.75 10.5761 12.8685 10.2899 13.0795 10.0789C13.2905 9.86797 13.5766 9.74944 13.875 9.74944ZM13.875 13.4994C14.0975 13.4994 14.315 13.5654 14.5 13.689C14.685 13.8127 14.8292 13.9884 14.9144 14.1939C14.9995 14.3995 15.0218 14.6257 14.9784 14.8439C14.935 15.0621 14.8278 15.2626 14.6705 15.4199C14.5132 15.5773 14.3127 15.6844 14.0945 15.7278C13.8762 15.7712 13.65 15.749 13.4445 15.6638C13.2389 15.5787 13.0632 15.4345 12.9396 15.2495C12.816 15.0645 12.75 14.8469 12.75 14.6244C12.75 14.3261 12.8685 14.0399 13.0795 13.8289C13.2905 13.618 13.5766 13.4994 13.875 13.4994ZM13.875 17.2494C14.0975 17.2494 14.315 17.3154 14.5 17.439C14.685 17.5627 14.8292 17.7384 14.9144 17.9439C14.9995 18.1495 15.0218 18.3757 14.9784 18.5939C14.935 18.8121 14.8278 19.0126 14.6705 19.1699C14.5132 19.3273 14.3127 19.4344 14.0945 19.4778C13.8762 19.5212 13.65 19.499 13.4445 19.4138C13.2389 19.3287 13.0632 19.1845 12.9396 18.9995C12.816 18.8145 12.75 18.5969 12.75 18.3744C12.75 18.0761 12.8685 17.7899 13.0795 17.5789C13.2905 17.368 13.5766 17.2494 13.875 17.2494ZM10.125 13.4994C10.3475 13.4994 10.565 13.5654 10.75 13.689C10.935 13.8127 11.0792 13.9884 11.1644 14.1939C11.2495 14.3995 11.2718 14.6257 11.2284 14.8439C11.185 15.0621 11.0778 15.2626 10.9205 15.4199C10.7632 15.5773 10.5627 15.6844 10.3445 15.7278C10.1262 15.7712 9.90005 15.749 9.69448 15.6638C9.48891 15.5787 9.31321 15.4345 9.1896 15.2495C9.06598 15.0645 9 14.8469 9 14.6244C9 14.3261 9.11853 14.0399 9.3295 13.8289C9.54048 13.618 9.82663 13.4994 10.125 13.4994ZM10.125 17.2494C10.3475 17.2494 10.565 17.3154 10.75 17.439C10.935 17.5627 11.0792 17.7384 11.1644 17.9439C11.2495 18.1495 11.2718 18.3757 11.2284 18.5939C11.185 18.8121 11.0778 19.0126 10.9205 19.1699C10.7632 19.3273 10.5627 19.4344 10.3445 19.4778C10.1262 19.5212 9.90005 19.499 9.69448 19.4138C9.48891 19.3287 9.31321 19.1845 9.1896 18.9995C9.06598 18.8145 9 18.5969 9 18.3744C9 18.0761 9.11853 17.7899 9.3295 17.5789C9.54048 17.368 9.82663 17.2494 10.125 17.2494ZM6.375 13.4994C6.5975 13.4994 6.81501 13.5654 7.00002 13.689C7.18502 13.8127 7.32922 13.9884 7.41436 14.1939C7.49951 14.3995 7.52179 14.6257 7.47838 14.8439C7.43498 15.0621 7.32783 15.2626 7.1705 15.4199C7.01316 15.5773 6.81271 15.6844 6.59448 15.7278C6.37625 15.7712 6.15005 15.749 5.94448 15.6638C5.73891 15.5787 5.56321 15.4345 5.4396 15.2495C5.31598 15.0645 5.25 14.8469 5.25 14.6244C5.25 14.3261 5.36853 14.0399 5.5795 13.8289C5.79048 13.618 6.07663 13.4994 6.375 13.4994ZM6.375 17.2494C6.5975 17.2494 6.81501 17.3154 7.00002 17.439C7.18502 17.5627 7.32922 17.7384 7.41436 17.9439C7.49951 18.1495 7.52179 18.3757 7.47838 18.5939C7.43498 18.8121 7.32783 19.0126 7.1705 19.1699C7.01316 19.3273 6.81271 19.4344 6.59448 19.4778C6.37625 19.5212 6.15005 19.499 5.94448 19.4138C5.73891 19.3287 5.56321 19.1845 5.4396 18.9995C5.31598 18.8145 5.25 18.5969 5.25 18.3744C5.25 18.0761 5.36853 17.7899 5.5795 17.5789C5.79048 17.368 6.07663 17.2494 6.375 17.2494Z" fill="currentColor"/>        
        </symbol>
        <symbol id="filled-checkmark" xmlns="http://www.w3.org/2000/svg" viewBox="0 0 24 24">
            <path fill-rule="evenodd" clip-rule="evenodd" d="M19.9939 5.43533C20.3056 5.7081 20.3372 6.18192 20.0644 6.49364L9.56443 18.4936C9.42774 18.6499 9.23242 18.7424 9.02496 18.7494C8.8175 18.7563 8.61645 18.6769 8.46967 18.5301L3.96967 14.0301C3.67678 13.7372 3.67678 13.2623 3.96967 12.9694C4.26256 12.6765 4.73744 12.6765 5.03033 12.9694L8.96347 16.9026L18.9356 5.50589C19.2083 5.19416 19.6822 5.16257 19.9939 5.43533Z" fill="currentColor"/>
        </symbol>
        <symbol id="filled-flame" xmlns="http://www.w3.org/2000/svg" viewBox="0 0 24 24">
            <path d="M18.4795 9.26062C17.8988 7.71887 17.0521 6.29096 15.9778 5.04187C14.1187 2.88984 11.6742 1.5 9.75 1.5C9.63558 1.50009 9.5227 1.52635 9.42 1.57678C9.3173 1.6272 9.22749 1.70046 9.15746 1.79094C9.08743 1.88142 9.03903 1.98673 9.01596 2.09879C8.99289 2.21086 8.99577 2.32672 9.02437 2.4375C9.67453 4.92188 8.32688 6.98766 6.90047 9.17438C5.71875 10.9856 4.5 12.8564 4.5 15C4.5 19.1353 7.86469 22.5 12 22.5C16.1353 22.5 19.5 19.1353 19.5 15C19.5 12.9703 19.1569 11.0395 18.4795 9.26062ZM13.5155 19.6261C13.0312 20.1417 12.4242 20.25 12 20.25C11.5758 20.25 10.9688 20.1417 10.4845 19.6261C10.0003 19.1105 9.75 18.2925 9.75 17.25C9.75 16.0716 10.1634 15.1744 10.5628 14.3072C10.7948 13.8038 11.0316 13.2914 11.1722 12.743C11.1871 12.6833 11.2165 12.6282 11.2577 12.5826C11.2989 12.537 11.3508 12.5022 11.4086 12.4813C11.4664 12.4604 11.5285 12.4541 11.5894 12.4628C11.6503 12.4716 11.7081 12.4952 11.7577 12.5316C12.1864 12.8633 12.5676 13.2522 12.8906 13.6875C13.7423 14.8125 14.25 16.1447 14.25 17.25C14.25 18.2925 13.9959 19.1142 13.5155 19.6261Z" fill="currentColor"/>
        </symbol>
        <symbol id="filled-flash" xmlns="http://www.w3.org/2000/svg" viewBox="0 0 24 24">
            <path d="M9.13382 23.2505C9.00816 23.2506 8.884 23.2232 8.77006 23.1702C8.65613 23.1172 8.55518 23.0399 8.47432 22.9437C8.39345 22.8475 8.33464 22.7348 8.302 22.6134C8.26935 22.4921 8.26368 22.365 8.28538 22.2413V22.2361L9.60303 15.0005H4.50163C4.36003 15.0005 4.22133 14.9604 4.10156 14.8848C3.9818 14.8093 3.88587 14.7014 3.82487 14.5736C3.76387 14.4458 3.74029 14.3034 3.75686 14.1627C3.77343 14.0221 3.82947 13.889 3.9185 13.7789L14.1921 1.07862C14.309 0.930177 14.4714 0.824122 14.6543 0.776671C14.8372 0.729221 15.0306 0.742987 15.205 0.815864C15.3793 0.888741 15.525 1.01672 15.6198 1.18023C15.7145 1.34373 15.7531 1.53377 15.7296 1.72128C15.7296 1.73534 15.7258 1.74893 15.7235 1.76299L14.4012 9.00049H19.5016C19.6432 9.00051 19.7819 9.04061 19.9017 9.11616C20.0215 9.1917 20.1174 9.29961 20.1784 9.4274C20.2394 9.55519 20.263 9.69763 20.2464 9.83826C20.2298 9.97888 20.1738 10.1119 20.0848 10.2221L9.80975 22.9224C9.72902 23.0244 9.62631 23.1069 9.50928 23.1637C9.39225 23.2205 9.26391 23.2502 9.13382 23.2505Z" fill="currentColor"/>
        </symbol>
        <symbol id="filled-barbell" xmlns="http://www.w3.org/2000/svg" viewBox="0 0 24 24">
            <path d="M21.8906 8.24986C21.6599 8.24236 21.4308 8.29191 21.2238 8.39411C21.0167 8.49632 20.8381 8.64803 20.7038 8.83579C20.6923 8.85214 20.676 8.86442 20.6572 8.87086C20.6383 8.8773 20.6179 8.87756 20.5989 8.8716C20.5798 8.86564 20.5632 8.85378 20.5514 8.83773C20.5396 8.82168 20.5332 8.80229 20.5331 8.78236V7.06439C20.5331 6.09173 19.7672 5.27329 18.795 5.25032C18.5574 5.24432 18.3209 5.28594 18.0996 5.37273C17.8783 5.45953 17.6766 5.58974 17.5064 5.7557C17.3362 5.92165 17.201 6.12 17.1086 6.33904C17.0163 6.55808 16.9687 6.79339 16.9688 7.03111V10.8749C16.9688 10.8997 16.9589 10.9236 16.9413 10.9411C16.9237 10.9587 16.8999 10.9686 16.875 10.9686H7.125C7.10014 10.9686 7.07629 10.9587 7.05871 10.9411C7.04113 10.9236 7.03125 10.8997 7.03125 10.8749V7.06439C7.03125 6.09173 6.26531 5.27329 5.29313 5.25032C5.05564 5.24457 4.81941 5.28638 4.59833 5.37329C4.37725 5.4602 4.17578 5.59045 4.00579 5.75638C3.83579 5.92231 3.70071 6.12057 3.60848 6.33949C3.51625 6.5584 3.46874 6.79355 3.46875 7.03111V8.78329C3.4687 8.80322 3.46231 8.82262 3.45049 8.83867C3.43867 8.85472 3.42204 8.86658 3.40302 8.87254C3.384 8.87849 3.36358 8.87823 3.34471 8.87179C3.32585 8.86536 3.30953 8.85307 3.29813 8.83673C3.16368 8.64853 2.98481 8.49647 2.77741 8.39408C2.57002 8.29169 2.34054 8.24215 2.10938 8.24986C1.34531 8.27376 0.75 8.92064 0.75 9.68517V14.3127C0.75 15.0772 1.34719 15.7241 2.10938 15.748C2.34014 15.7555 2.56919 15.7059 2.77623 15.6037C2.98326 15.5015 3.16188 15.3498 3.29625 15.162C3.30738 15.1448 3.32388 15.1316 3.34322 15.1246C3.36255 15.1176 3.38365 15.1172 3.40325 15.1234C3.42286 15.1296 3.43989 15.142 3.45173 15.1588C3.46356 15.1756 3.46954 15.1959 3.46875 15.2164V16.9353C3.46875 17.9061 4.23469 18.7264 5.20687 18.7499C5.4444 18.7556 5.68067 18.7138 5.90178 18.6268C6.12289 18.5399 6.32438 18.4096 6.49438 18.2436C6.66438 18.0777 6.79946 17.8793 6.89166 17.6604C6.98386 17.4414 7.03132 17.2062 7.03125 16.9686V13.1249C7.03125 13.1 7.04113 13.0761 7.05871 13.0586C7.07629 13.041 7.10014 13.0311 7.125 13.0311H16.875C16.8999 13.0311 16.9237 13.041 16.9413 13.0586C16.9589 13.0761 16.9688 13.1 16.9688 13.1249V16.9353C16.9688 17.908 17.7347 18.7264 18.7069 18.7494C18.9444 18.7551 19.1806 18.7133 19.4017 18.6264C19.6228 18.5395 19.8242 18.4093 19.9942 18.2433C20.1642 18.0774 20.2993 17.8791 20.3915 17.6602C20.4837 17.4413 20.5313 17.2062 20.5312 16.9686V15.2164C20.5313 15.1965 20.5377 15.1771 20.5495 15.161C20.5613 15.145 20.578 15.1331 20.597 15.1272C20.616 15.1212 20.6364 15.1215 20.6553 15.1279C20.6741 15.1344 20.6905 15.1466 20.7019 15.163C20.8363 15.3512 21.0152 15.5032 21.2226 15.6056C21.43 15.708 21.6595 15.7576 21.8906 15.7499C22.6547 15.7259 23.25 15.0791 23.25 14.3145V9.68611C23.25 8.92157 22.6528 8.2747 21.8906 8.24986Z" fill="currentColor"/>
        </symbol>
        <symbol id="filled-leaf" xmlns="http://www.w3.org/2000/svg" viewBox="0 0 24 24">
            <path d="M7.56268 11.3437C7.6302 11.2719 7.71119 11.2142 7.80102 11.1738C7.89086 11.1334 7.98777 11.111 8.08624 11.1081C8.1847 11.1051 8.28278 11.1216 8.37488 11.1565C8.46697 11.1915 8.55129 11.2442 8.62299 11.3118C12.0744 14.563 15.5375 16.5412 19.6128 17.5494C20.1627 16.0494 20.2114 14.3985 19.7366 12.7879C19.1066 10.6508 17.6394 8.78897 15.4949 7.40381C13.5805 6.16725 11.6671 5.84522 9.81596 5.53397C7.48065 5.14116 5.27471 4.76991 3.16956 2.541C2.93518 2.29444 2.61596 2.19553 2.31081 2.27569C1.96206 2.36944 1.72815 2.64506 1.61612 3.10069C1.35362 4.16709 1.52237 7.15584 2.26065 10.311C3.44612 15.3801 5.33799 17.9451 6.71659 19.2046C8.49784 20.8307 10.8238 21.7312 13.1352 21.7312C13.5709 21.7318 14.006 21.6999 14.4369 21.6355C16.3921 21.3393 18.0196 20.3573 18.9369 18.9285C14.7421 17.8372 11.1585 15.7621 7.59315 12.4054C7.52131 12.3377 7.46353 12.2566 7.4231 12.1666C7.38268 12.0766 7.36042 11.9795 7.35759 11.8808C7.35476 11.7822 7.37142 11.684 7.40661 11.5918C7.4418 11.4996 7.49484 11.4153 7.56268 11.3437Z" fill="currentColor"/>
            <path d="M21.9102 18.0088C21.1213 17.8874 20.3572 17.7351 19.6133 17.5508C19.4604 17.9684 19.2701 18.3713 19.0447 18.7546C19.0105 18.8132 18.9744 18.8713 18.9374 18.9285C19.8422 19.1627 20.7584 19.3505 21.6824 19.491C21.7807 19.5083 21.8815 19.5058 21.9788 19.4836C22.0761 19.4614 22.1681 19.42 22.2492 19.3619C22.3303 19.3037 22.399 19.2299 22.4513 19.1449C22.5035 19.0598 22.5383 18.9652 22.5535 18.8665C22.5687 18.7678 22.564 18.6671 22.5398 18.5703C22.5155 18.4734 22.4722 18.3824 22.4123 18.3025C22.3525 18.2226 22.2773 18.1555 22.1911 18.1051C22.105 18.0546 22.0096 18.0219 21.9107 18.0088H21.9102Z" fill="currentColor"/>
        </symbol>
        <symbol id="filled-home" xmlns="http://www.w3.org/2000/svg" viewBox="0 0 24 24">
            <path d="M12.2603 4.7475C12.1905 4.68074 12.0976 4.64348 12.001 4.64348C11.9045 4.64348 11.8116 4.68074 11.7418 4.7475L3.11214 12.9914C3.07549 13.0265 3.04633 13.0686 3.02643 13.1152C3.00653 13.1619 2.9963 13.2121 2.99636 13.2628L2.99495 21C2.99495 21.3978 3.15299 21.7794 3.43429 22.0607C3.7156 22.342 4.09713 22.5 4.49495 22.5H8.99964C9.19855 22.5 9.38932 22.421 9.52997 22.2803C9.67062 22.1397 9.74964 21.9489 9.74964 21.75V15.375C9.74964 15.2755 9.78915 15.1802 9.85947 15.1098C9.9298 15.0395 10.0252 15 10.1246 15H13.8746C13.9741 15 14.0695 15.0395 14.1398 15.1098C14.2101 15.1802 14.2496 15.2755 14.2496 15.375V21.75C14.2496 21.9489 14.3287 22.1397 14.4693 22.2803C14.61 22.421 14.8007 22.5 14.9996 22.5H19.5025C19.9003 22.5 20.2818 22.342 20.5631 22.0607C20.8444 21.7794 21.0025 21.3978 21.0025 21V13.2628C21.0025 13.2121 20.9923 13.1619 20.9724 13.1152C20.9525 13.0686 20.9233 13.0265 20.8867 12.9914L12.2603 4.7475Z" fill="currentColor"/>
            <path d="M23.011 11.4445L19.5048 8.09016V3C19.5048 2.80109 19.4258 2.61032 19.2851 2.46967C19.1445 2.32902 18.9537 2.25 18.7548 2.25H16.5048C16.3059 2.25 16.1151 2.32902 15.9745 2.46967C15.8338 2.61032 15.7548 2.80109 15.7548 3V4.5L13.0398 1.90406C12.7857 1.64719 12.4079 1.5 11.9996 1.5C11.5928 1.5 11.2159 1.64719 10.9618 1.90453L0.991515 11.4436C0.699953 11.7248 0.66339 12.1875 0.928703 12.4922C0.995327 12.5691 1.0769 12.6316 1.16847 12.676C1.26003 12.7204 1.35967 12.7457 1.46132 12.7503C1.56296 12.755 1.66449 12.7389 1.75972 12.7031C1.85496 12.6672 1.9419 12.6124 2.01526 12.5419L11.7418 3.2475C11.8116 3.18074 11.9045 3.14348 12.001 3.14348C12.0976 3.14348 12.1905 3.18074 12.2603 3.2475L21.9878 12.5419C22.1311 12.6793 22.323 12.7543 22.5215 12.7504C22.72 12.7465 22.9088 12.6641 23.0467 12.5212C23.3345 12.2231 23.3106 11.7309 23.011 11.4445Z" fill="currentColor"/>
        </symbol>
        <symbol id="filled-people" xmlns="http://www.w3.org/2000/svg" viewBox="0 0 24 24">
            <path d="M15.7492 12C14.7855 12 13.8536 11.5697 13.1242 10.7888C12.415 10.027 11.9819 9.01125 11.9055 7.92938C11.8239 6.77531 12.1759 5.71406 12.8964 4.94063C13.6169 4.16719 14.6242 3.75 15.7492 3.75C16.8662 3.75 17.8764 4.17469 18.5945 4.94625C19.3197 5.72531 19.6727 6.78469 19.5911 7.92891C19.5128 9.01219 19.0802 10.0275 18.3723 10.7883C17.6448 11.5697 16.7134 12 15.7492 12Z" fill="currentColor"/>
            <path d="M21.9287 20.25H9.57015C9.37145 20.2511 9.17516 20.2065 8.99638 20.1198C8.81759 20.0331 8.66109 19.9065 8.5389 19.7498C8.40929 19.58 8.31979 19.383 8.27709 19.1736C8.23439 18.9643 8.23961 18.748 8.29234 18.5409C8.68703 16.9561 9.66484 15.6417 11.1198 14.7403C12.4112 13.9406 14.0552 13.5 15.7492 13.5C17.4766 13.5 19.0773 13.9219 20.3762 14.7211C21.8345 15.6178 22.8137 16.9397 23.2066 18.5438C23.2587 18.751 23.2633 18.9673 23.2201 19.1765C23.1769 19.3857 23.087 19.5825 22.9572 19.7522C22.8351 19.9082 22.679 20.0341 22.5007 20.1204C22.3224 20.2067 22.1268 20.251 21.9287 20.25Z" fill="currentColor"/>
            <path d="M6.88984 12.1875C5.24031 12.1875 3.79 10.6538 3.65546 8.76891C3.5889 7.80328 3.88984 6.91031 4.49921 6.25547C5.10203 5.60719 5.95234 5.25 6.88984 5.25C7.82734 5.25 8.67109 5.60906 9.27718 6.26109C9.89124 6.92109 10.1912 7.81219 10.1209 8.76984C9.9864 10.6542 8.53656 12.1875 6.88984 12.1875Z" fill="currentColor"/>
            <path d="M9.96765 13.6617C9.14312 13.2586 8.07296 13.057 6.89031 13.057C5.50937 13.057 4.16828 13.417 3.11359 14.0705C1.91781 14.8125 1.11343 15.893 0.788589 17.1975C0.741051 17.3851 0.736555 17.5811 0.775437 17.7707C0.814319 17.9603 0.895573 18.1387 1.01312 18.2925C1.12466 18.4357 1.26755 18.5514 1.43081 18.6307C1.59407 18.71 1.77334 18.7508 1.95484 18.75H7.15796C7.24578 18.75 7.33081 18.7192 7.39823 18.6629C7.46565 18.6066 7.51117 18.5284 7.52687 18.442C7.53203 18.4125 7.53859 18.383 7.54609 18.3539C7.94359 16.7573 8.875 15.4083 10.2512 14.4248C10.3019 14.3884 10.3426 14.3398 10.3697 14.2836C10.3968 14.2274 10.4095 14.1653 10.4066 14.103C10.4036 14.0407 10.3852 13.9801 10.3529 13.9267C10.3206 13.8733 10.2755 13.8288 10.2217 13.7972C10.1481 13.7541 10.0637 13.7086 9.96765 13.6617Z" fill="currentColor"/>
        </symbol>
        <symbol id="filled-settings" xmlns="http://www.w3.org/2000/svg" viewBox="0 0 24 24">
            <path d="M11.9995 14.25C13.2422 14.25 14.2495 13.2426 14.2495 12C14.2495 10.7574 13.2422 9.75 11.9995 9.75C10.7569 9.75 9.74953 10.7574 9.74953 12C9.74953 13.2426 10.7569 14.25 11.9995 14.25Z" fill="currentColor"/> 
            <path d="M22.0491 14.0625L22.027 14.0447L20.5477 12.8845C20.454 12.8104 20.3792 12.7151 20.3295 12.6065C20.2798 12.4979 20.2566 12.379 20.2617 12.2597V11.7178C20.257 11.5992 20.2805 11.4812 20.3303 11.3735C20.3801 11.2658 20.4548 11.1714 20.5481 11.0981L22.027 9.9375L22.0491 9.91969C22.2771 9.72969 22.4302 9.46475 22.4809 9.17225C22.5315 8.87976 22.4765 8.57877 22.3256 8.32312L20.3236 4.85906C20.3213 4.85579 20.3193 4.85235 20.3175 4.84875C20.1658 4.59664 19.9306 4.40562 19.6527 4.30886C19.3749 4.2121 19.0719 4.21571 18.7964 4.31906L18.78 4.32516L17.0409 5.025C16.9312 5.06938 16.8124 5.08704 16.6945 5.07653C16.5766 5.06602 16.4628 5.02763 16.3627 4.96453C16.2089 4.86766 16.0527 4.77609 15.8939 4.68984C15.791 4.63403 15.7026 4.55481 15.6359 4.45856C15.5692 4.36232 15.5261 4.25176 15.51 4.13578L15.248 2.28L15.2423 2.24625C15.1853 1.95881 15.0311 1.69977 14.8055 1.51265C14.58 1.32554 14.2969 1.22176 14.0039 1.21875H9.99516C9.698 1.2197 9.41071 1.32549 9.1839 1.51749C8.9571 1.70948 8.80532 1.97536 8.75532 2.26828L8.7511 2.29453L8.49 4.15406C8.47399 4.2697 8.4312 4.38001 8.36504 4.4762C8.29887 4.57239 8.21117 4.6518 8.10891 4.70813C7.9486 4.79437 7.79204 4.88578 7.64016 4.98094C7.54016 5.04365 7.4267 5.08174 7.30912 5.09209C7.19153 5.10244 7.07317 5.08475 6.96375 5.04047L5.22328 4.33734L5.20688 4.33078C4.931 4.22731 4.62758 4.22384 4.34941 4.32096C4.07123 4.41808 3.83591 4.60965 3.68438 4.86234L3.67828 4.87266L1.67344 8.33906C1.52233 8.59497 1.46718 8.89629 1.51784 9.18913C1.56851 9.48197 1.7217 9.74724 1.95 9.9375L1.97203 9.95531L3.45141 11.1155C3.54509 11.1896 3.61986 11.2849 3.66957 11.3935C3.71927 11.5021 3.7425 11.621 3.73735 11.7403V12.2822C3.74204 12.4008 3.71853 12.5188 3.66874 12.6265C3.61895 12.7342 3.5443 12.8286 3.45094 12.9019L1.97203 14.0625L1.95 14.0803C1.72192 14.2703 1.56886 14.5353 1.5182 14.8277C1.46753 15.1202 1.52256 15.4212 1.67344 15.6769L3.67547 19.1409C3.67778 19.1442 3.67981 19.1477 3.68157 19.1512C3.83326 19.4034 4.06847 19.5944 4.34633 19.6911C4.6242 19.7879 4.92718 19.7843 5.20266 19.6809L5.21907 19.6748L6.95672 18.975C7.06649 18.9306 7.18522 18.913 7.30315 18.9235C7.42108 18.934 7.53482 18.9724 7.635 19.0355C7.78875 19.1327 7.945 19.2242 8.10375 19.3102C8.20668 19.366 8.29505 19.4452 8.36174 19.5414C8.42842 19.6377 8.47156 19.7482 8.48766 19.8642L8.74828 21.72L8.75391 21.7537C8.81105 22.0417 8.96571 22.3011 9.19182 22.4882C9.41792 22.6754 9.70165 22.7789 9.99516 22.7812H14.0039C14.3011 22.7803 14.5884 22.6745 14.8152 22.4825C15.042 22.2905 15.1937 22.0246 15.2438 21.7317L15.248 21.7055L15.5091 19.8459C15.5253 19.7301 15.5685 19.6196 15.6351 19.5234C15.7016 19.4272 15.7898 19.3479 15.8925 19.2919C16.0528 19.2056 16.2094 19.1142 16.3613 19.0191C16.4613 18.9564 16.5747 18.9183 16.6923 18.9079C16.8099 18.8976 16.9282 18.9153 17.0377 18.9595L18.7781 19.6603L18.7945 19.6669C19.0704 19.7705 19.3739 19.7741 19.6521 19.677C19.9303 19.5798 20.1656 19.3881 20.317 19.1353C20.3189 19.1318 20.3209 19.1283 20.3231 19.125L22.3252 15.6614C22.4765 15.4055 22.5319 15.1041 22.4813 14.8112C22.4307 14.5182 22.2775 14.2528 22.0491 14.0625ZM15.7453 12.1763C15.7112 12.9021 15.4669 13.6025 15.0421 14.1921C14.6173 14.7817 14.0304 15.2352 13.3526 15.4974C12.6749 15.7597 11.9356 15.8193 11.2245 15.6692C10.5135 15.519 9.86147 15.1655 9.34765 14.6516C8.83382 14.1377 8.48038 13.4856 8.3303 12.7746C8.18022 12.0635 8.23996 11.3242 8.50227 10.6465C8.76458 9.96881 9.21814 9.38192 9.80781 8.95721C10.3975 8.5325 11.0979 8.28827 11.8238 8.25422C12.3449 8.23127 12.8651 8.31702 13.3513 8.50601C13.8375 8.695 14.2791 8.98309 14.6479 9.35197C15.0167 9.72085 15.3048 10.1624 15.4937 10.6487C15.6826 11.1349 15.7683 11.6551 15.7453 12.1763Z" fill="currentColor"/>        
        </symbol>
        <symbol viewBox="0 0 16 17" fill="none" xmlns="http://www.w3.org/2000/svg" id="filled-time">
            <path d="M8 2C4.41031 2 1.5 4.91031 1.5 8.5C1.5 12.0897 4.41031 15 8 15C11.5897 15 14.5 12.0897 14.5 8.5C14.5 4.91031 11.5897 2 8 2ZM11 9.5H8C7.86739 9.5 7.74021 9.44732 7.64645 9.35355C7.55268 9.25979 7.5 9.13261 7.5 9V4.5C7.5 4.36739 7.55268 4.24021 7.64645 4.14645C7.74021 4.05268 7.86739 4 8 4C8.13261 4 8.25979 4.05268 8.35355 4.14645C8.44732 4.24021 8.5 4.36739 8.5 4.5V8.5H11C11.1326 8.5 11.2598 8.55268 11.3536 8.64645C11.4473 8.74021 11.5 8.86739 11.5 9C11.5 9.13261 11.4473 9.25979 11.3536 9.35355C11.2598 9.44732 11.1326 9.5 11 9.5Z" fill="currentColor"/>
        </symbol>
        <symbol id="filled-close" xmlns="http://www.w3.org/2000/svg" viewBox="0 0 24 24">
            <path d="M13.5922 12.0004L18.0453 7.54724C18.2567 7.33627 18.3756 7.04998 18.3758 6.75136C18.3761 6.45274 18.2577 6.16624 18.0467 5.9549C17.8358 5.74355 17.5495 5.62467 17.2509 5.62441C16.9522 5.62414 16.6657 5.74252 16.4544 5.95349L12.0013 10.4066L7.54815 5.95349C7.3368 5.74215 7.05016 5.62341 6.75127 5.62341C6.45239 5.62341 6.16574 5.74215 5.9544 5.95349C5.74305 6.16483 5.62432 6.45148 5.62432 6.75036C5.62432 7.04925 5.74305 7.3359 5.9544 7.54724L10.4075 12.0004L5.9544 16.4535C5.74305 16.6648 5.62432 16.9515 5.62432 17.2504C5.62432 17.5493 5.74305 17.8359 5.9544 18.0472C6.16574 18.2586 6.45239 18.3773 6.75127 18.3773C7.05016 18.3773 7.3368 18.2586 7.54815 18.0472L12.0013 13.5941L16.4544 18.0472C16.6657 18.2586 16.9524 18.3773 17.2513 18.3773C17.5502 18.3773 17.8368 18.2586 18.0481 18.0472C18.2595 17.8359 18.3782 17.5493 18.3782 17.2504C18.3782 16.9515 18.2595 16.6648 18.0481 16.4535L13.5922 12.0004Z" fill="currentColor"/>
        </symbol>
    </defs>
</svg>