<svg xmlns="http://www.w3.org/2000/svg" xmlns:xlink="http://www.w3.org/1999/xlink">
    <defs>
        <symbol id="filled-calendar" xmlns="http://www.w3.org/2000/svg"  viewBox="0 0 24 24">
            <path d="M22.5 5.99944C22.5 5.20379 22.1839 4.44073 21.6213 3.87812C21.0587 3.31551 20.2956 2.99944 19.5 2.99944H18.75V2.27054C18.75 1.86694 18.4397 1.52054 18.0361 1.50038C17.9347 1.49549 17.8333 1.51125 17.7382 1.54669C17.6431 1.58212 17.5561 1.63651 17.4826 1.70655C17.4091 1.77658 17.3506 1.86081 17.3106 1.95413C17.2706 2.04745 17.25 2.14792 17.25 2.24944V2.99944H6.75V2.27054C6.75 1.86694 6.43969 1.52054 6.03609 1.50038C5.93469 1.49549 5.83334 1.51125 5.7382 1.54669C5.64307 1.58212 5.55611 1.63651 5.48261 1.70655C5.40911 1.77658 5.3506 1.86081 5.31062 1.95413C5.27063 2.04745 5.25001 2.14792 5.25 2.24944V2.99944H4.5C3.70435 2.99944 2.94129 3.31551 2.37868 3.87812C1.81607 4.44073 1.5 5.20379 1.5 5.99944V6.56194C1.5 6.61167 1.51975 6.65936 1.55492 6.69453C1.59008 6.72969 1.63777 6.74944 1.6875 6.74944H22.3125C22.3622 6.74944 22.4099 6.72969 22.4451 6.69453C22.4802 6.65936 22.5 6.61167 22.5 6.56194V5.99944Z" fill="currentColor"/>
            <path d="M1.5 19.4994C1.5 20.2951 1.81607 21.0582 2.37868 21.6208C2.94129 22.1834 3.70435 22.4994 4.5 22.4994H19.5C20.2956 22.4994 21.0587 22.1834 21.6213 21.6208C22.1839 21.0582 22.5 20.2951 22.5 19.4994V8.39007C22.5 8.35277 22.4852 8.317 22.4588 8.29063C22.4324 8.26426 22.3967 8.24944 22.3594 8.24944H1.64062C1.60333 8.24944 1.56756 8.26426 1.54119 8.29063C1.51482 8.317 1.5 8.35277 1.5 8.39007V19.4994ZM17.625 9.74944C17.8475 9.74944 18.065 9.81542 18.25 9.93904C18.435 10.0627 18.5792 10.2384 18.6644 10.4439C18.7495 10.6495 18.7718 10.8757 18.7284 11.0939C18.685 11.3121 18.5778 11.5126 18.4205 11.6699C18.2632 11.8273 18.0627 11.9344 17.8445 11.9778C17.6262 12.0212 17.4 11.999 17.1945 11.9138C16.9889 11.8287 16.8132 11.6845 16.6896 11.4995C16.566 11.3145 16.5 11.0969 16.5 10.8744C16.5 10.5761 16.6185 10.2899 16.8295 10.0789C17.0405 9.86797 17.3266 9.74944 17.625 9.74944ZM17.625 13.4994C17.8475 13.4994 18.065 13.5654 18.25 13.689C18.435 13.8127 18.5792 13.9884 18.6644 14.1939C18.7495 14.3995 18.7718 14.6257 18.7284 14.8439C18.685 15.0621 18.5778 15.2626 18.4205 15.4199C18.2632 15.5773 18.0627 15.6844 17.8445 15.7278C17.6262 15.7712 17.4 15.749 17.1945 15.6638C16.9889 15.5787 16.8132 15.4345 16.6896 15.2495C16.566 15.0645 16.5 14.8469 16.5 14.6244C16.5 14.3261 16.6185 14.0399 16.8295 13.8289C17.0405 13.618 17.3266 13.4994 17.625 13.4994ZM13.875 9.74944C14.0975 9.74944 14.315 9.81542 14.5 9.93904C14.685 10.0627 14.8292 10.2384 14.9144 10.4439C14.9995 10.6495 15.0218 10.8757 14.9784 11.0939C14.935 11.3121 14.8278 11.5126 14.6705 11.6699C14.5132 11.8273 14.3127 11.9344 14.0945 11.9778C13.8762 12.0212 13.65 11.999 13.4445 11.9138C13.2389 11.8287 13.0632 11.6845 12.9396 11.4995C12.816 11.3145 12.75 11.0969 12.75 10.8744C12.75 10.5761 12.8685 10.2899 13.0795 10.0789C13.2905 9.86797 13.5766 9.74944 13.875 9.74944ZM13.875 13.4994C14.0975 13.4994 14.315 13.5654 14.5 13.689C14.685 13.8127 14.8292 13.9884 14.9144 14.1939C14.9995 14.3995 15.0218 14.6257 14.9784 14.8439C14.935 15.0621 14.8278 15.2626 14.6705 15.4199C14.5132 15.5773 14.3127 15.6844 14.0945 15.7278C13.8762 15.7712 13.65 15.749 13.4445 15.6638C13.2389 15.5787 13.0632 15.4345 12.9396 15.2495C12.816 15.0645 12.75 14.8469 12.75 14.6244C12.75 14.3261 12.8685 14.0399 13.0795 13.8289C13.2905 13.618 13.5766 13.4994 13.875 13.4994ZM13.875 17.2494C14.0975 17.2494 14.315 17.3154 14.5 17.439C14.685 17.5627 14.8292 17.7384 14.9144 17.9439C14.9995 18.1495 15.0218 18.3757 14.9784 18.5939C14.935 18.8121 14.8278 19.0126 14.6705 19.1699C14.5132 19.3273 14.3127 19.4344 14.0945 19.4778C13.8762 19.5212 13.65 19.499 13.4445 19.4138C13.2389 19.3287 13.0632 19.1845 12.9396 18.9995C12.816 18.8145 12.75 18.5969 12.75 18.3744C12.75 18.0761 12.8685 17.7899 13.0795 17.5789C13.2905 17.368 13.5766 17.2494 13.875 17.2494ZM10.125 13.4994C10.3475 13.4994 10.565 13.5654 10.75 13.689C10.935 13.8127 11.0792 13.9884 11.1644 14.1939C11.2495 14.3995 11.2718 14.6257 11.2284 14.8439C11.185 15.0621 11.0778 15.2626 10.9205 15.4199C10.7632 15.5773 10.5627 15.6844 10.3445 15.7278C10.1262 15.7712 9.90005 15.749 9.69448 15.6638C9.48891 15.5787 9.31321 15.4345 9.1896 15.2495C9.06598 15.0645 9 14.8469 9 14.6244C9 14.3261 9.11853 14.0399 9.3295 13.8289C9.54048 13.618 9.82663 13.4994 10.125 13.4994ZM10.125 17.2494C10.3475 17.2494 10.565 17.3154 10.75 17.439C10.935 17.5627 11.0792 17.7384 11.1644 17.9439C11.2495 18.1495 11.2718 18.3757 11.2284 18.5939C11.185 18.8121 11.0778 19.0126 10.9205 19.1699C10.7632 19.3273 10.5627 19.4344 10.3445 19.4778C10.1262 19.5212 9.90005 19.499 9.69448 19.4138C9.48891 19.3287 9.31321 19.1845 9.1896 18.9995C9.06598 18.8145 9 18.5969 9 18.3744C9 18.0761 9.11853 17.7899 9.3295 17.5789C9.54048 17.368 9.82663 17.2494 10.125 17.2494ZM6.375 13.4994C6.5975 13.4994 6.81501 13.5654 7.00002 13.689C7.18502 13.8127 7.32922 13.9884 7.41436 14.1939C7.49951 14.3995 7.52179 14.6257 7.47838 14.8439C7.43498 15.0621 7.32783 15.2626 7.1705 15.4199C7.01316 15.5773 6.81271 15.6844 6.59448 15.7278C6.37625 15.7712 6.15005 15.749 5.94448 15.6638C5.73891 15.5787 5.56321 15.4345 5.4396 15.2495C5.31598 15.0645 5.25 14.8469 5.25 14.6244C5.25 14.3261 5.36853 14.0399 5.5795 13.8289C5.79048 13.618 6.07663 13.4994 6.375 13.4994ZM6.375 17.2494C6.5975 17.2494 6.81501 17.3154 7.00002 17.439C7.18502 17.5627 7.32922 17.7384 7.41436 17.9439C7.49951 18.1495 7.52179 18.3757 7.47838 18.5939C7.43498 18.8121 7.32783 19.0126 7.1705 19.1699C7.01316 19.3273 6.81271 19.4344 6.59448 19.4778C6.37625 19.5212 6.15005 19.499 5.94448 19.4138C5.73891 19.3287 5.56321 19.1845 5.4396 18.9995C5.31598 18.8145 5.25 18.5969 5.25 18.3744C5.25 18.0761 5.36853 17.7899 5.5795 17.5789C5.79048 17.368 6.07663 17.2494 6.375 17.2494Z" fill="currentColor"/>        
        </symbol>
        <symbol id="filled-checkmark" xmlns="http://www.w3.org/2000/svg" viewBox="0 0 24 24">
            <path fill-rule="evenodd" clip-rule="evenodd" d="M19.9939 5.43533C20.3056 5.7081 20.3372 6.18192 20.0644 6.49364L9.56443 18.4936C9.42774 18.6499 9.23242 18.7424 9.02496 18.7494C8.8175 18.7563 8.61645 18.6769 8.46967 18.5301L3.96967 14.0301C3.67678 13.7372 3.67678 13.2623 3.96967 12.9694C4.26256 12.6765 4.73744 12.6765 5.03033 12.9694L8.96347 16.9026L18.9356 5.50589C19.2083 5.19416 19.6822 5.16257 19.9939 5.43533Z" fill="currentColor"/>
        </symbol>
        <symbol id="filled-flame" xmlns="http://www.w3.org/2000/svg" viewBox="0 0 24 24">
            <path d="M18.4795 9.26062C17.8988 7.71887 17.0521 6.29096 15.9778 5.04187C14.1187 2.88984 11.6742 1.5 9.75 1.5C9.63558 1.50009 9.5227 1.52635 9.42 1.57678C9.3173 1.6272 9.22749 1.70046 9.15746 1.79094C9.08743 1.88142 9.03903 1.98673 9.01596 2.09879C8.99289 2.21086 8.99577 2.32672 9.02437 2.4375C9.67453 4.92188 8.32688 6.98766 6.90047 9.17438C5.71875 10.9856 4.5 12.8564 4.5 15C4.5 19.1353 7.86469 22.5 12 22.5C16.1353 22.5 19.5 19.1353 19.5 15C19.5 12.9703 19.1569 11.0395 18.4795 9.26062ZM13.5155 19.6261C13.0312 20.1417 12.4242 20.25 12 20.25C11.5758 20.25 10.9688 20.1417 10.4845 19.6261C10.0003 19.1105 9.75 18.2925 9.75 17.25C9.75 16.0716 10.1634 15.1744 10.5628 14.3072C10.7948 13.8038 11.0316 13.2914 11.1722 12.743C11.1871 12.6833 11.2165 12.6282 11.2577 12.5826C11.2989 12.537 11.3508 12.5022 11.4086 12.4813C11.4664 12.4604 11.5285 12.4541 11.5894 12.4628C11.6503 12.4716 11.7081 12.4952 11.7577 12.5316C12.1864 12.8633 12.5676 13.2522 12.8906 13.6875C13.7423 14.8125 14.25 16.1447 14.25 17.25C14.25 18.2925 13.9959 19.1142 13.5155 19.6261Z" fill="currentColor"/>
        </symbol>
        <symbol id="filled-flash" xmlns="http://www.w3.org/2000/svg" viewBox="0 0 24 24">
            <path d="M9.13382 23.2505C9.00816 23.2506 8.884 23.2232 8.77006 23.1702C8.65613 23.1172 8.55518 23.0399 8.47432 22.9437C8.39345 22.8475 8.33464 22.7348 8.302 22.6134C8.26935 22.4921 8.26368 22.365 8.28538 22.2413V22.2361L9.60303 15.0005H4.50163C4.36003 15.0005 4.22133 14.9604 4.10156 14.8848C3.9818 14.8093 3.88587 14.7014 3.82487 14.5736C3.76387 14.4458 3.74029 14.3034 3.75686 14.1627C3.77343 14.0221 3.82947 13.889 3.9185 13.7789L14.1921 1.07862C14.309 0.930177 14.4714 0.824122 14.6543 0.776671C14.8372 0.729221 15.0306 0.742987 15.205 0.815864C15.3793 0.888741 15.525 1.01672 15.6198 1.18023C15.7145 1.34373 15.7531 1.53377 15.7296 1.72128C15.7296 1.73534 15.7258 1.74893 15.7235 1.76299L14.4012 9.00049H19.5016C19.6432 9.00051 19.7819 9.04061 19.9017 9.11616C20.0215 9.1917 20.1174 9.29961 20.1784 9.4274C20.2394 9.55519 20.263 9.69763 20.2464 9.83826C20.2298 9.97888 20.1738 10.1119 20.0848 10.2221L9.80975 22.9224C9.72902 23.0244 9.62631 23.1069 9.50928 23.1637C9.39225 23.2205 9.26391 23.2502 9.13382 23.2505Z" fill="currentColor"/>
        </symbol>
        <symbol id="filled-barbell" xmlns="http://www.w3.org/2000/svg" viewBox="0 0 24 24">
            <path d="M21.8906 8.24986C21.6599 8.24236 21.4308 8.29191 21.2238 8.39411C21.0167 8.49632 20.8381 8.64803 20.7038 8.83579C20.6923 8.85214 20.676 8.86442 20.6572 8.87086C20.6383 8.8773 20.6179 8.87756 20.5989 8.8716C20.5798 8.86564 20.5632 8.85378 20.5514 8.83773C20.5396 8.82168 20.5332 8.80229 20.5331 8.78236V7.06439C20.5331 6.09173 19.7672 5.27329 18.795 5.25032C18.5574 5.24432 18.3209 5.28594 18.0996 5.37273C17.8783 5.45953 17.6766 5.58974 17.5064 5.7557C17.3362 5.92165 17.201 6.12 17.1086 6.33904C17.0163 6.55808 16.9687 6.79339 16.9688 7.03111V10.8749C16.9688 10.8997 16.9589 10.9236 16.9413 10.9411C16.9237 10.9587 16.8999 10.9686 16.875 10.9686H7.125C7.10014 10.9686 7.07629 10.9587 7.05871 10.9411C7.04113 10.9236 7.03125 10.8997 7.03125 10.8749V7.06439C7.03125 6.09173 6.26531 5.27329 5.29313 5.25032C5.05564 5.24457 4.81941 5.28638 4.59833 5.37329C4.37725 5.4602 4.17578 5.59045 4.00579 5.75638C3.83579 5.92231 3.70071 6.12057 3.60848 6.33949C3.51625 6.5584 3.46874 6.79355 3.46875 7.03111V8.78329C3.4687 8.80322 3.46231 8.82262 3.45049 8.83867C3.43867 8.85472 3.42204 8.86658 3.40302 8.87254C3.384 8.87849 3.36358 8.87823 3.34471 8.87179C3.32585 8.86536 3.30953 8.85307 3.29813 8.83673C3.16368 8.64853 2.98481 8.49647 2.77741 8.39408C2.57002 8.29169 2.34054 8.24215 2.10938 8.24986C1.34531 8.27376 0.75 8.92064 0.75 9.68517V14.3127C0.75 15.0772 1.34719 15.7241 2.10938 15.748C2.34014 15.7555 2.56919 15.7059 2.77623 15.6037C2.98326 15.5015 3.16188 15.3498 3.29625 15.162C3.30738 15.1448 3.32388 15.1316 3.34322 15.1246C3.36255 15.1176 3.38365 15.1172 3.40325 15.1234C3.42286 15.1296 3.43989 15.142 3.45173 15.1588C3.46356 15.1756 3.46954 15.1959 3.46875 15.2164V16.9353C3.46875 17.9061 4.23469 18.7264 5.20687 18.7499C5.4444 18.7556 5.68067 18.7138 5.90178 18.6268C6.12289 18.5399 6.32438 18.4096 6.49438 18.2436C6.66438 18.0777 6.79946 17.8793 6.89166 17.6604C6.98386 17.4414 7.03132 17.2062 7.03125 16.9686V13.1249C7.03125 13.1 7.04113 13.0761 7.05871 13.0586C7.07629 13.041 7.10014 13.0311 7.125 13.0311H16.875C16.8999 13.0311 16.9237 13.041 16.9413 13.0586C16.9589 13.0761 16.9688 13.1 16.9688 13.1249V16.9353C16.9688 17.908 17.7347 18.7264 18.7069 18.7494C18.9444 18.7551 19.1806 18.7133 19.4017 18.6264C19.6228 18.5395 19.8242 18.4093 19.9942 18.2433C20.1642 18.0774 20.2993 17.8791 20.3915 17.6602C20.4837 17.4413 20.5313 17.2062 20.5312 16.9686V15.2164C20.5313 15.1965 20.5377 15.1771 20.5495 15.161C20.5613 15.145 20.578 15.1331 20.597 15.1272C20.616 15.1212 20.6364 15.1215 20.6553 15.1279C20.6741 15.1344 20.6905 15.1466 20.7019 15.163C20.8363 15.3512 21.0152 15.5032 21.2226 15.6056C21.43 15.708 21.6595 15.7576 21.8906 15.7499C22.6547 15.7259 23.25 15.0791 23.25 14.3145V9.68611C23.25 8.92157 22.6528 8.2747 21.8906 8.24986Z" fill="currentColor"/>
        </symbol>
    </defs>
</svg>